<svg width="22" height="22" viewBox="0 0 22 22" fill="none" xmlns="http://www.w3.org/2000/svg">
<path d="M19.5278 0.121094H2.34033C1.71873 0.121094 1.12259 0.368024 0.683051 0.807562C0.243512 1.2471 -0.00341797 1.84324 -0.00341797 2.46484L-0.00341797 19.6523C-0.00341797 20.2739 0.243512 20.8701 0.683051 21.3096C1.12259 21.7492 1.71873 21.9961 2.34033 21.9961H9.04199V14.5591H5.96582V11.0586H9.04199V8.39062C9.04199 5.35596 10.8486 3.67969 13.6157 3.67969C14.9409 3.67969 16.3267 3.91602 16.3267 3.91602V6.89453H14.7998C13.2954 6.89453 12.8262 7.82812 12.8262 8.78564V11.0586H16.1846L15.6475 14.5591H12.8262V21.9961H19.5278C20.1494 21.9961 20.7456 21.7492 21.1851 21.3096C21.6247 20.8701 21.8716 20.2739 21.8716 19.6523V2.46484C21.8716 1.84324 21.6247 1.2471 21.1851 0.807562C20.7456 0.368024 20.1494 0.121094 19.5278 0.121094Z" fill="black"/>
</svg>
