<svg width="23" height="22" viewBox="0 0 23 22" fill="none" xmlns="http://www.w3.org/2000/svg">
<path d="M11.8176 5.44849C8.71216 5.44849 6.20727 7.95337 6.20727 11.0588C6.20727 14.1643 8.71216 16.6692 11.8176 16.6692C14.9231 16.6692 17.428 14.1643 17.428 11.0588C17.428 7.95337 14.9231 5.44849 11.8176 5.44849ZM11.8176 14.7063C9.81079 14.7063 8.17017 13.0706 8.17017 11.0588C8.17017 9.04712 9.80591 7.41138 11.8176 7.41138C13.8293 7.41138 15.4651 9.04712 15.4651 11.0588C15.4651 13.0706 13.8245 14.7063 11.8176 14.7063ZM18.9661 5.21899C18.9661 5.94653 18.3801 6.52759 17.6575 6.52759C16.9299 6.52759 16.3489 5.94165 16.3489 5.21899C16.3489 4.49634 16.9348 3.9104 17.6575 3.9104C18.3801 3.9104 18.9661 4.49634 18.9661 5.21899ZM22.6819 6.54712C22.5989 4.79419 22.1985 3.24146 20.9143 1.96216C19.635 0.682861 18.0823 0.282471 16.3293 0.19458C14.5227 0.092041 9.10767 0.092041 7.30103 0.19458C5.55298 0.277588 4.00024 0.677978 2.71606 1.95728C1.43188 3.23657 1.03638 4.78931 0.948486 6.54224C0.845947 8.34888 0.845947 13.7639 0.948486 15.5706C1.03149 17.3235 1.43188 18.8762 2.71606 20.1555C4.00024 21.4348 5.5481 21.8352 7.30103 21.9231C9.10767 22.0256 14.5227 22.0256 16.3293 21.9231C18.0823 21.8401 19.635 21.4397 20.9143 20.1555C22.1936 18.8762 22.594 17.3235 22.6819 15.5706C22.7844 13.7639 22.7844 8.35376 22.6819 6.54712ZM20.3479 17.509C19.967 18.4661 19.2297 19.2034 18.2678 19.5891C16.8274 20.1604 13.4094 20.0286 11.8176 20.0286C10.2258 20.0286 6.80298 20.1555 5.36743 19.5891C4.4104 19.2083 3.6731 18.4709 3.28735 17.509C2.71606 16.0686 2.8479 12.6506 2.8479 11.0588C2.8479 9.46704 2.72095 6.04419 3.28735 4.60864C3.66821 3.65161 4.40552 2.91431 5.36743 2.52856C6.80786 1.95728 10.2258 2.08911 11.8176 2.08911C13.4094 2.08911 16.8323 1.96216 18.2678 2.52856C19.2249 2.90942 19.9622 3.64673 20.3479 4.60864C20.9192 6.04907 20.7874 9.46704 20.7874 11.0588C20.7874 12.6506 20.9192 16.0735 20.3479 17.509Z" fill="black"/>
</svg>
