<svg width="79" height="78" viewBox="0 0 79 78" fill="none" xmlns="http://www.w3.org/2000/svg">
<path d="M69.4089 38.2562H69.3871C69.0915 38.2562 68.8067 38.1437 68.5908 37.9442L56.3394 26.5852C55.8641 26.1444 55.8369 25.4025 56.2759 24.9291C56.7167 24.4538 57.4586 24.4266 57.932 24.8656L70.0583 36.1067C70.3739 36.3171 70.5807 36.6763 70.5807 37.0826C70.5807 37.732 70.0565 38.2562 69.4089 38.2562ZM45.8565 16.4434C45.5717 16.4434 45.2851 16.34 45.0602 16.1314C41.5538 12.8826 39.0905 10.5971 39.0905 10.5971C38.773 10.3032 38.6442 9.85877 38.7531 9.43975C38.8619 9.02073 39.1939 8.69784 39.6147 8.59626L39.8342 8.54366C40.4582 8.39491 41.0858 8.77584 41.2436 9.39621C42.1615 10.247 44.1405 12.0827 46.6547 14.4118C47.1299 14.8526 47.1571 15.5945 46.7182 16.0679C46.486 16.3164 46.1722 16.4434 45.8565 16.4434Z" fill="#4A60A1"/>
<path d="M63.5298 69.4889C62.9239 69.4889 62.4106 69.0227 62.3616 68.4096C62.3417 68.1557 62.4033 67.9144 62.5249 67.7131V37.0754C62.5249 36.4278 63.0491 35.9036 63.6967 35.9036C64.3443 35.9036 64.8685 36.4278 64.8685 37.0754V68.3044C64.8685 68.9157 64.3987 69.4236 63.7892 69.4726L63.6223 69.4853C63.5915 69.4871 63.5606 69.4889 63.5298 69.4889Z" fill="#4A60A1"/>
<path d="M58.2603 25.4299C57.6145 25.4299 57.0885 24.9075 57.0885 24.2599L57.0667 13.9258C56.5715 13.7807 56.216 13.32 56.225 12.7794C56.2377 12.1318 56.7765 11.6112 57.4186 11.6294L58.2585 11.6439C58.897 11.6548 59.4085 12.1754 59.4085 12.8139L59.4321 24.2545C59.4339 24.9021 58.9097 25.4281 58.2621 25.4299C58.2621 25.4299 58.2621 25.4299 58.2603 25.4299Z" fill="#4A60A1"/>
<path d="M56.7823 26.1844C56.7823 26.9701 57.4185 27.6062 58.2041 27.6062C58.9893 27.6062 59.6278 26.9706 59.6278 26.1844V12.6686C59.6278 11.883 58.9916 11.2468 58.2059 11.2468H49.655C48.8693 11.2468 48.2332 11.883 48.2332 12.6686V18.2103C48.2332 18.9959 48.8693 19.6321 49.655 19.6321C50.4406 19.6321 51.0768 18.9959 51.0768 18.2103V14.0905H56.7823V26.1844Z" fill="#1E2640" stroke="#1E2640" stroke-width="0.5"/>
<path d="M8.83195 36.0347L8.83172 36.0349C8.25346 36.5648 8.21094 37.4648 8.74193 38.0442C9.02167 38.3502 9.40701 38.5063 9.79151 38.5063C10.1345 38.5063 10.4782 38.3829 10.7508 38.1345L10.7511 38.1342L39.706 11.6679L68.2467 38.1276L68.247 38.1279C68.8233 38.6602 69.7213 38.6274 70.2561 38.0508L70.2561 38.0507C70.789 37.476 70.7558 36.576 70.1793 36.0413L70.1793 36.0413L40.6793 8.69267C40.1374 8.18816 39.2986 8.18635 38.753 8.6858L8.83195 36.0347Z" fill="#4A60A1" stroke="#4A60A1" stroke-width="0.5"/>
<path d="M15.4074 69.7352H63.7075L64.8775 68.3116H65.1275V68.3109V33.7557C65.1275 32.9701 64.4914 32.3339 63.7057 32.3339C62.9201 32.3339 62.2839 32.9701 62.2839 33.7557V66.8898H16.8292V32.7018C16.8292 31.9162 16.1931 31.28 15.4074 31.28C14.6218 31.28 13.9856 31.9162 13.9856 32.7018V68.3134C13.9856 69.099 14.6218 69.7352 15.4074 69.7352Z" fill="#4A60A1" stroke="#4A60A1" stroke-width="0.5"/>
<path d="M51.2876 40.6499H27.9126C27.3258 40.6499 26.8501 41.1256 26.8501 41.7124V58.7124C26.8501 59.2992 27.3258 59.7749 27.9126 59.7749H51.2876C51.8744 59.7749 52.3501 59.2992 52.3501 58.7124V41.7124C52.3501 41.1256 51.8744 40.6499 51.2876 40.6499Z" stroke="#1E2640" stroke-width="2.5" stroke-linecap="round" stroke-linejoin="round"/>
<path d="M44.9126 40.6499V38.5249C44.9126 37.9613 44.6887 37.4208 44.2902 37.0223C43.8917 36.6238 43.3512 36.3999 42.7876 36.3999H36.4126C35.849 36.3999 35.3085 36.6238 34.91 37.0223C34.5115 37.4208 34.2876 37.9613 34.2876 38.5249V40.6499" stroke="#1E2640" stroke-width="2.5" stroke-linecap="round" stroke-linejoin="round"/>
<path d="M52.3501 47.8618C48.475 50.1029 44.0766 51.2804 39.6001 51.2751C35.1228 51.2868 30.7227 50.1088 26.8501 47.8618" stroke="#1E2640" stroke-width="2.5" stroke-linecap="round" stroke-linejoin="round"/>
<path d="M38.0063 47.0249H41.1938" stroke="#1E2640" stroke-width="2.5" stroke-linecap="round" stroke-linejoin="round"/>
</svg>
