<svg width="79" height="78" viewBox="0 0 79 78" fill="none" xmlns="http://www.w3.org/2000/svg">
<path d="M69.6089 38.2562H69.5871C69.2914 38.2562 69.0066 38.1437 68.7908 37.9442L56.5393 26.5852C56.0641 26.1444 56.0369 25.4025 56.4758 24.9291C56.9166 24.4538 57.6585 24.4266 58.132 24.8656L70.2583 36.1067C70.5739 36.3171 70.7807 36.6763 70.7807 37.0826C70.7807 37.732 70.2564 38.2562 69.6089 38.2562ZM46.0565 16.4434C45.7717 16.4434 45.4851 16.34 45.2602 16.1314C41.7538 12.8826 39.2904 10.5971 39.2904 10.5971C38.973 10.3032 38.8442 9.85877 38.953 9.43975C39.0619 9.02073 39.3938 8.69784 39.8147 8.59626L40.0342 8.54366C40.6582 8.39491 41.2858 8.77584 41.4436 9.39621C42.3615 10.247 44.3405 12.0827 46.8546 14.4118C47.3299 14.8526 47.3571 15.5945 46.9181 16.0679C46.6859 16.3164 46.3721 16.4434 46.0565 16.4434Z" fill="#4A60A1"/>
<path d="M63.7298 69.489C63.124 69.489 62.6106 69.0228 62.5617 68.4097C62.5417 68.1557 62.6034 67.9145 62.7249 67.7131V37.0754C62.7249 36.4279 63.2491 35.9036 63.8967 35.9036C64.5443 35.9036 65.0685 36.4279 65.0685 37.0754V68.3045C65.0685 68.9158 64.5987 69.4237 63.9892 69.4726L63.8224 69.4853C63.7915 69.4872 63.7607 69.489 63.7298 69.489Z" fill="#4A60A1"/>
<path d="M58.4603 25.4299C57.8145 25.4299 57.2885 24.9075 57.2885 24.2599L57.2667 13.9258C56.7715 13.7807 56.416 13.32 56.425 12.7794C56.4377 12.1318 56.9765 11.6112 57.6186 11.6293L58.4585 11.6439C59.097 11.6547 59.6085 12.1753 59.6085 12.8139L59.6321 24.2545C59.6339 24.902 59.1097 25.4281 58.4621 25.4299H58.4603Z" fill="#4A60A1"/>
<path d="M58.404 27.3563C57.7565 27.3563 57.2322 26.8321 57.2322 26.1845V13.8406H51.0267V18.2104C51.0267 18.858 50.5025 19.3822 49.8549 19.3822C49.2073 19.3822 48.6831 18.858 48.6831 18.2104V12.6688C48.6831 12.0212 49.2073 11.4969 49.8549 11.4969H58.4059C59.0534 11.4969 59.5777 12.0212 59.5777 12.6688V26.1845C59.5777 26.8321 59.0516 27.3563 58.404 27.3563Z" fill="#1E2640"/>
<path d="M9.99146 38.2563C9.67401 38.2563 9.35657 38.1275 9.1262 37.8754C8.68904 37.3983 8.7235 36.6564 9.20057 36.2192L39.1217 8.87025C39.5716 8.45848 40.2627 8.46029 40.7089 8.87569L70.2093 36.2247C70.6845 36.6655 70.7117 37.4074 70.2728 37.8808C69.832 38.3561 69.0919 38.3833 68.6166 37.9443L39.9072 11.3282L10.7823 37.9497C10.5574 38.1547 10.2744 38.2563 9.99146 38.2563Z" fill="#4A60A1"/>
<path d="M63.9076 69.4853H15.6075C14.9599 69.4853 14.4357 68.9611 14.4357 68.3135V32.702C14.4357 32.0544 14.9599 31.5301 15.6075 31.5301C16.255 31.5301 16.7793 32.0544 16.7793 32.702V67.1399H62.734V33.7559C62.734 33.1083 63.2582 32.5841 63.9058 32.5841C64.5534 32.5841 65.0776 33.1083 65.0776 33.7559V68.3117C65.0794 68.9593 64.5552 69.4853 63.9076 69.4853Z" fill="#4A60A1"/>
<path d="M63.6277 69.7353H15.6075C14.8218 69.7353 14.1857 69.0992 14.1857 68.3135V35.1776L10.951 38.1343L10.9507 38.1345C10.6781 38.383 10.3345 38.5063 9.99146 38.5063C9.60685 38.5063 9.2214 38.3502 8.94164 38.044C8.4109 37.4645 8.4535 36.5647 9.03167 36.0349L9.03191 36.0347L38.9529 8.68583C39.2276 8.43438 39.5766 8.30999 39.9247 8.31282L39.9759 8.30054L39.9762 8.30047C40.7082 8.12599 41.4438 8.55208 41.6649 9.26047C41.9139 9.49126 42.2341 9.78814 42.6162 10.1425C43.6755 11.1246 45.2107 12.5481 47.0245 14.2284L47.0246 14.2285C47.173 14.3661 47.2853 14.5278 47.3613 14.702L48.4331 15.6956V12.6688C48.4331 11.8831 49.0692 11.2469 49.8549 11.2469H58.4059C59.1155 11.2469 59.7032 11.766 59.8103 12.4454C59.8417 12.5628 59.8585 12.6861 59.8585 12.8133L63.6277 69.7353ZM63.6277 69.7353C63.6615 69.7377 63.6955 69.739 63.7298 69.739C63.7663 69.739 63.8017 69.737 63.8302 69.7353C63.8326 69.7352 63.8348 69.735 63.8371 69.7349L63.8371 69.7349L63.8413 69.7346L63.9076 69.7296L64.0082 69.7219L64.0093 69.7218C64.7459 69.6626 65.3148 69.0504 65.3185 68.3117H65.3276V68.311V35.236L68.4467 38.1276L68.447 38.1279C68.7439 38.4022 69.1263 38.5264 69.5004 38.5036C69.5292 38.5053 69.5581 38.5062 69.5871 38.5062H69.6089C70.3948 38.5062 71.0307 37.8698 71.0307 37.0826C71.0307 36.597 70.787 36.1669 70.4143 35.9104L59.8277 26.0966L63.6277 69.7353ZM59.8821 24.2538L59.8585 12.8139L59.8821 24.2538ZM59.8821 24.2538V24.2539L59.8277 24.2541L59.8821 24.2538ZM39.906 11.6679L62.7858 32.8795C62.5967 33.121 62.484 33.4252 62.484 33.7559V36.9139C62.478 36.9669 62.4749 37.0208 62.4749 37.0754V66.8899H17.0293V32.702C17.0293 32.6619 17.0276 32.6222 17.0244 32.5829L39.906 11.6679ZM56.9822 23.6213L51.272 18.3275C51.2751 18.2889 51.2767 18.2498 51.2767 18.2104V14.0906H56.9822V23.6213Z" stroke="#4A60A1" stroke-width="0.5"/>
<path d="M36.5375 43.5125C36.2124 42.7149 36.0468 41.8613 36.05 41C36.05 39.665 36.4459 38.3599 37.1876 37.2499C37.9293 36.1399 38.9835 35.2747 40.2169 34.7638C41.4503 34.2529 42.8075 34.1193 44.1169 34.3797C45.4263 34.6402 46.629 35.283 47.573 36.227C48.517 37.171 49.1599 38.3738 49.4204 39.6831C49.6808 40.9925 49.5471 42.3497 49.0362 43.5831C48.5253 44.8165 47.6602 45.8707 46.5501 46.6124C45.4401 47.3541 44.1351 47.75 42.8 47.75C41.9387 47.7532 41.0851 47.5876 40.2875 47.2625V47.2625L39.05 48.5H36.8V50.75H34.55V53H30.8V49.25L36.5375 43.5125Z" stroke="#1E2640" stroke-width="1.5" stroke-linecap="round" stroke-linejoin="round"/>
<path d="M44.675 40.25C45.2964 40.25 45.8 39.7463 45.8 39.125C45.8 38.5037 45.2964 38 44.675 38C44.0537 38 43.55 38.5037 43.55 39.125C43.55 39.7463 44.0537 40.25 44.675 40.25Z" fill="#1E2640"/>
</svg>
