<svg width="79" height="78" viewBox="0 0 79 78" fill="none" xmlns="http://www.w3.org/2000/svg">
<path d="M69.2085 38.2562H69.1867C68.891 38.2562 68.6062 38.1437 68.3904 37.9442L56.1389 26.5852C55.6637 26.1444 55.6365 25.4025 56.0754 24.9291C56.5162 24.4538 57.2581 24.4266 57.7316 24.8656L69.8579 36.1067C70.1735 36.3171 70.3803 36.6763 70.3803 37.0826C70.3803 37.732 69.856 38.2562 69.2085 38.2562ZM45.6561 16.4434C45.3713 16.4434 45.0847 16.34 44.8598 16.1314C41.3534 12.8826 38.89 10.5971 38.89 10.5971C38.5726 10.3032 38.4438 9.85877 38.5526 9.43975C38.6615 9.02073 38.9934 8.69784 39.4143 8.59626L39.6338 8.54366C40.2578 8.39491 40.8854 8.77584 41.0432 9.39621C41.9611 10.247 43.9401 12.0827 46.4542 14.4118C46.9295 14.8526 46.9567 15.5945 46.5177 16.0679C46.2855 16.3164 45.9717 16.4434 45.6561 16.4434Z" fill="#4A60A1"/>
<path d="M63.3296 69.4889C62.7237 69.4889 62.2104 69.0227 62.1614 68.4096C62.1415 68.1557 62.2031 67.9144 62.3247 67.7131V37.0754C62.3247 36.4278 62.8489 35.9036 63.4965 35.9036C64.1441 35.9036 64.6683 36.4278 64.6683 37.0754V68.3044C64.6683 68.9157 64.1985 69.4236 63.589 69.4726L63.4221 69.4853C63.3913 69.4871 63.3604 69.4889 63.3296 69.4889Z" fill="#4A60A1"/>
<path d="M58.0598 25.4299C57.4141 25.4299 56.888 24.9075 56.888 24.2599L56.8663 13.9258C56.3711 13.7807 56.0155 13.32 56.0246 12.7794C56.0373 12.1318 56.576 11.6112 57.2182 11.6294L58.058 11.6439C58.6965 11.6548 59.2081 12.1754 59.2081 12.8139L59.2317 24.2545C59.2335 24.9021 58.7092 25.4281 58.0617 25.4299C58.0617 25.4299 58.0617 25.4299 58.0598 25.4299Z" fill="#4A60A1"/>
<path d="M56.5819 26.1844C56.5819 26.9701 57.218 27.6062 58.0037 27.6062C58.7888 27.6062 59.4273 26.9706 59.4273 26.1844V12.6686C59.4273 11.883 58.7912 11.2468 58.0055 11.2468H49.4545C48.6689 11.2468 48.0327 11.883 48.0327 12.6686V18.2103C48.0327 18.9959 48.6689 19.6321 49.4545 19.6321C50.2402 19.6321 50.8763 18.9959 50.8763 18.2103V14.0905H56.5819V26.1844Z" fill="#1E2640" stroke="#1E2640" stroke-width="0.5"/>
<path d="M8.63152 36.0347L8.63128 36.0349C8.05302 36.5648 8.0105 37.4648 8.54149 38.0442C8.82123 38.3502 9.20658 38.5063 9.59107 38.5063C9.93407 38.5063 10.2777 38.3829 10.5503 38.1345L10.5506 38.1342L39.5056 11.6679L68.0463 38.1276L68.0466 38.1279C68.6229 38.6602 69.5209 38.6274 70.0557 38.0508L70.0557 38.0507C70.5886 37.476 70.5553 36.576 69.9789 36.0413L69.9789 36.0413L40.4789 8.69267C39.9369 8.18816 39.0982 8.18635 38.5525 8.6858L8.63152 36.0347Z" fill="#4A60A1" stroke="#4A60A1" stroke-width="0.5"/>
<path d="M15.207 69.7352H63.5071L64.6771 68.3116H64.9271V68.3109V33.7557C64.9271 32.9701 64.291 32.3339 63.5053 32.3339C62.7197 32.3339 62.0835 32.9701 62.0835 33.7557V66.8898H16.6288V32.7018C16.6288 31.9162 15.9926 31.28 15.207 31.28C14.4213 31.28 13.7852 31.9162 13.7852 32.7018V68.3134C13.7852 69.099 14.4213 69.7352 15.207 69.7352Z" fill="#4A60A1" stroke="#4A60A1" stroke-width="0.5"/>
<path d="M38.2749 51.75C42.6241 51.75 46.1499 48.2242 46.1499 43.875C46.1499 39.5258 42.6241 36 38.2749 36C33.9257 36 30.3999 39.5258 30.3999 43.875C30.3999 48.2242 33.9257 51.75 38.2749 51.75Z" stroke="#1E2640" stroke-width="2" stroke-linecap="round" stroke-linejoin="round"/>
<path d="M43.8438 49.4438L48.4 54.0001" stroke="#1E2640" stroke-width="2" stroke-linecap="round" stroke-linejoin="round"/>
</svg>
