<svg width="78" height="78" viewBox="0 0 78 78" fill="none" xmlns="http://www.w3.org/2000/svg">
<path d="M68.8088 38.2562H68.787C68.4914 38.2562 68.2066 38.1437 67.9907 37.9442L55.7393 26.5852C55.264 26.1444 55.2368 25.4025 55.6758 24.9291C56.1166 24.4538 56.8585 24.4266 57.3319 24.8656L69.4582 36.1067C69.7738 36.3171 69.9806 36.6763 69.9806 37.0826C69.9806 37.732 69.4564 38.2562 68.8088 38.2562ZM45.2564 16.4434C44.9716 16.4434 44.685 16.34 44.4601 16.1314C40.9537 12.8826 38.4904 10.5971 38.4904 10.5971C38.1729 10.3032 38.0441 9.85877 38.153 9.43975C38.2618 9.02073 38.5938 8.69784 39.0146 8.59626L39.2341 8.54366C39.8581 8.39491 40.4857 8.77584 40.6435 9.39621C41.5614 10.247 43.5404 12.0827 46.0546 14.4118C46.5298 14.8526 46.557 15.5945 46.1181 16.0679C45.8859 16.3164 45.5721 16.4434 45.2564 16.4434Z" fill="#4A60A1"/>
<path d="M62.9297 69.4889C62.3238 69.4889 61.8105 69.0227 61.7615 68.4096C61.7416 68.1557 61.8032 67.9144 61.9248 67.7131V37.0754C61.9248 36.4278 62.449 35.9036 63.0966 35.9036C63.7442 35.9036 64.2684 36.4278 64.2684 37.0754V68.3044C64.2684 68.9157 63.7986 69.4236 63.1891 69.4726L63.0222 69.4853C62.9914 69.4871 62.9605 69.4889 62.9297 69.4889Z" fill="#4A60A1"/>
<path d="M57.6602 25.4299C57.0144 25.4299 56.4884 24.9075 56.4884 24.2599L56.4666 13.9258C55.9714 13.7807 55.6159 13.32 55.6249 12.7794C55.6376 12.1318 56.1764 11.6112 56.8185 11.6294L57.6584 11.6439C58.2969 11.6548 58.8084 12.1754 58.8084 12.8139L58.832 24.2545C58.8338 24.9021 58.3096 25.4281 57.662 25.4299C57.662 25.4299 57.662 25.4299 57.6602 25.4299Z" fill="#4A60A1"/>
<path d="M56.1822 26.1844C56.1822 26.9701 56.8184 27.6062 57.604 27.6062C58.3892 27.6062 59.0277 26.9706 59.0277 26.1844V12.6686C59.0277 11.883 58.3915 11.2468 57.6058 11.2468H49.0549C48.2692 11.2468 47.6331 11.883 47.6331 12.6686V18.2103C47.6331 18.9959 48.2692 19.6321 49.0549 19.6321C49.8405 19.6321 50.4767 18.9959 50.4767 18.2103V14.0905H56.1822V26.1844Z" fill="#1E2640" stroke="#1E2640" stroke-width="0.5"/>
<path d="M32.9503 68.3117V44.661H45.2768V68.3135C45.2768 69.0991 45.9129 69.7353 46.6986 69.7353C47.4846 69.7353 48.12 69.0971 48.1222 68.3142V68.3135V43.2392C48.1222 42.4535 47.4861 41.8174 46.7004 41.8174H31.5285C30.7428 41.8174 30.1067 42.4535 30.1067 43.2392V68.3117C30.1067 69.0973 30.7428 69.7335 31.5285 69.7335C32.3142 69.7335 32.9503 69.0973 32.9503 68.3117Z" fill="#1E2640" stroke="#1E2640" stroke-width="0.5"/>
<path d="M8.23186 36.0347L8.23163 36.0349C7.65336 36.5648 7.61084 37.4648 8.14183 38.0442C8.42157 38.3502 8.80692 38.5063 9.19141 38.5063C9.53441 38.5063 9.87806 38.3829 10.1507 38.1345L10.151 38.1342L39.1059 11.6679L67.6466 38.1276L67.6469 38.1279C68.2232 38.6602 69.1212 38.6274 69.656 38.0508L69.656 38.0507C70.1889 37.476 70.1557 36.576 69.5792 36.0413L69.5792 36.0413L40.0792 8.69267C39.5373 8.18816 38.6985 8.18635 38.1529 8.6858L8.23186 36.0347Z" fill="#4A60A1" stroke="#4A60A1" stroke-width="0.5"/>
<path d="M14.8073 69.7352H63.1074L64.2775 68.3116H64.5275V68.3109V33.7557C64.5275 32.9701 63.8913 32.3339 63.1056 32.3339C62.32 32.3339 61.6838 32.9701 61.6838 33.7557V66.8898H16.2291V32.7018C16.2291 31.9162 15.593 31.28 14.8073 31.28C14.0217 31.28 13.3855 31.9162 13.3855 32.7018V68.3134C13.3855 69.099 14.0217 69.7352 14.8073 69.7352Z" fill="#4A60A1" stroke="#4A60A1" stroke-width="0.5"/>
</svg>
