<svg width="22" height="22" viewBox="0 0 22 22" fill="none" xmlns="http://www.w3.org/2000/svg">
<path d="M19.6528 0.121094H2.46533C1.17139 0.121094 0.121582 1.1709 0.121582 2.46484V19.6523C0.121582 20.9463 1.17139 21.9961 2.46533 21.9961H19.6528C20.9468 21.9961 21.9966 20.9463 21.9966 19.6523V2.46484C21.9966 1.1709 20.9468 0.121094 19.6528 0.121094ZM17.2651 7.875C17.2749 8.01172 17.2749 8.15332 17.2749 8.29004C17.2749 12.5234 14.0522 17.4014 8.16357 17.4014C6.34717 17.4014 4.6626 16.874 3.24658 15.9658C3.50537 15.9951 3.75439 16.0049 4.01807 16.0049C5.51709 16.0049 6.89404 15.4971 7.99268 14.6377C6.58643 14.6084 5.40479 13.6855 4.99951 12.416C5.49268 12.4893 5.93701 12.4893 6.44482 12.3574C4.97998 12.0596 3.88135 10.7705 3.88135 9.21289V9.17383C4.30615 9.41309 4.8042 9.55957 5.32666 9.5791C4.88742 9.28693 4.52734 8.89056 4.27855 8.42537C4.02977 7.96017 3.90002 7.44063 3.90088 6.91309C3.90088 6.31738 4.05713 5.77051 4.33545 5.29688C5.9126 7.24023 8.28076 8.50977 10.937 8.64648C10.4829 6.47363 12.1089 4.71094 14.062 4.71094C14.9849 4.71094 15.8149 5.09668 16.4009 5.72168C17.1235 5.58496 17.8169 5.31641 18.4321 4.95019C18.1929 5.69238 17.6899 6.31738 17.0259 6.71289C17.6704 6.64453 18.2954 6.46387 18.8716 6.21484C18.437 6.85449 17.8901 7.4209 17.2651 7.875Z" fill="black"/>
</svg>
