<svg width="32" height="22" viewBox="0 0 32 22" fill="none" xmlns="http://www.w3.org/2000/svg">
<path d="M30.4713 3.54152C30.1133 2.19382 29.0588 1.13241 27.7198 0.772208C25.2928 0.117676 15.5608 0.117676 15.5608 0.117676C15.5608 0.117676 5.82885 0.117676 3.40179 0.772208C2.06281 1.13247 1.00824 2.19382 0.650315 3.54152C0 5.9843 0 11.0809 0 11.0809C0 11.0809 0 16.1776 0.650315 18.6204C1.00824 19.9681 2.06281 20.9853 3.40179 21.3455C5.82885 22 15.5608 22 15.5608 22C15.5608 22 25.2927 22 27.7198 21.3455C29.0588 20.9853 30.1133 19.9681 30.4713 18.6204C31.1216 16.1776 31.1216 11.0809 31.1216 11.0809C31.1216 11.0809 31.1216 5.9843 30.4713 3.54152ZM12.3779 15.7083V6.45358L20.5119 11.0811L12.3779 15.7083Z" fill="black"/>
</svg>
